<svg xmlns="http://www.w3.org/2000/svg" width="10" height="10" viewBox="0 0 256 256"><g stroke-width="0" stroke-miterlimit="10"><path d="M127.857 193.892a2.81 2.81 0 01-2.81-2.81V64.632a2.811 2.811 0 015.62 0v126.45a2.81 2.81 0 01-2.81 2.81z"/><path d="M191.082 130.667H64.632a2.811 2.811 0 010-5.62h126.45a2.81 2.81 0 110 5.62z"/><path d="M251.497 254.307H4.217a2.81 2.81 0 01-2.81-2.81V4.217a2.811 2.811 0 012.81-2.81h247.28a2.81 2.81 0 012.81 2.81v247.28a2.807 2.807 0 01-2.81 2.81zm-244.47-5.62h241.66V7.027H7.027v241.66z"/></g></svg>