<svg xmlns="http://www.w3.org/2000/svg" height="16" viewBox="0 0 256 256"><g stroke-width="0" stroke-miterlimit="10" fill="none"><path d="M208.048 100.212l-147.66 5.485c-4.886 0-7.735 1.83-9.081 6.528l-30.652 104.86c-1.267 4.457-7.342 6.542-11.569 6.542-4.223 0-7.68-3.456-7.68-7.68V42.787c0-5.91 4.792-10.7 10.701-10.7h76.027c2.839 0 5.559 1.126 7.565 3.132l22.058 22.059a10.7 10.7 0 007.565 3.133h72.026c5.91 0 10.7 4.791 10.7 10.7v29.101z" fill="#e0ad31"/><path d="M9.086 223.627c4.224 0 6.413-3.223 7.68-7.68L47.665 108.15a10.953 10.953 0 0110.532-7.935h189.335c4.521 0 7.77 4.344 6.494 8.683L223.408 212.94c-1.383 4.92-4.415 10.728-10.687 10.686H9.086z" fill="#ffc843"/></g></svg>