<svg xmlns="http://www.w3.org/2000/svg" height="16" viewBox="0 0 256 256"><g stroke-width="0" stroke-miterlimit="10" fill="none"><path d="M221.767 52.956v192.49a8.861 8.861 0 01-8.86 8.86h-170.1a8.861 8.861 0 01-8.86-8.86V10.267a8.86 8.86 0 018.86-8.86H170.22c8.59 21.385 26.161 38.38 51.547 51.55z" fill="#e9e9e0"/><path d="M221.767 52.956H178.29a8.072 8.072 0 01-8.073-8.073V1.407l51.55 51.549z" fill="#d9d7ca"/><path d="M193.029 95.033h-74.142c-2.33 0-4.215-1.886-4.215-4.215s1.886-4.215 4.215-4.215h74.142a4.215 4.215 0 110 8.43zm-94.801 0H62.684c-2.33 0-4.215-1.886-4.215-4.215s1.886-4.215 4.215-4.215h35.544c2.33 0 4.215 1.885 4.215 4.215s-1.886 4.215-4.215 4.215zm22.036-35.367h-57.58c-2.33 0-4.215-1.885-4.215-4.215s1.886-4.215 4.215-4.215h57.583a4.216 4.216 0 11-.003 8.43zm72.765 66.277H62.684c-2.33 0-4.215-1.886-4.215-4.215s1.886-4.215 4.215-4.215h130.348a4.215 4.215 0 11-.003 8.43zm-56.206 30.91H62.684a4.215 4.215 0 110-8.43h74.142a4.216 4.216 0 11-.003 8.43zm56.206 0h-35.544c-2.326 0-4.215-1.888-4.215-4.215s1.889-4.215 4.215-4.215h35.544a4.216 4.216 0 010 8.43zm0 30.91H62.684a4.215 4.215 0 110-8.43h130.348c2.326 0 4.215 1.888 4.215 4.215s-1.891 4.215-4.218 4.215zm0 30.91h-35.544c-2.326 0-4.215-1.888-4.215-4.215s1.889-4.215 4.215-4.215h35.544a4.216 4.216 0 010 8.43z" fill="#b83535"/></g></svg>