<svg xmlns="http://www.w3.org/2000/svg" height="16" viewBox="0 0 256 256"><g stroke-width="0" stroke-miterlimit="10" fill="none"><path d="M1.407 194.729v33.478c0 4.814 3.936 8.75 8.75 8.75 9.397 0 13.502-7.423 13.502-7.423l.621-145.848 7.697-7.944 204.832-8.365v-4.164c0-6.733-5.457-12.19-12.19-12.19h-82.05a12.192 12.192 0 01-8.618-3.569l-25.13-25.13a12.192 12.192 0 00-8.618-3.568H13.596c-6.732 0-12.19 5.457-12.19 12.19v163.782" fill="#e0ad31"/><path d="M10.157 236.958c4.813 0 8.75-3.937 8.75-8.75V79.552c0-6.725 5.452-12.176 12.176-12.176h211.05c6.725 0 12.176 5.451 12.176 12.176v145.232c0 6.724-5.451 12.175-12.175 12.175-.003-.002-231.977-.002-231.977-.002z" fill="#ffc843"/></g></svg>